<mxfile host="app.diagrams.net" modified="2023-03-12T13:16:22.015Z" agent="5.0 (Windows NT 10.0; Win64; x64) AppleWebKit/537.36 (KHTML, like Gecko) Chrome/110.0.0.0 Safari/537.36" etag="Zdbx70-Z15OYlurwIbjS" version="21.0.6" type="github">
  <diagram name="第 1 页" id="Bc4yLyv87QQkuPW6gt9g">
    <mxGraphModel dx="1461" dy="629" grid="1" gridSize="10" guides="1" tooltips="1" connect="1" arrows="1" fold="1" page="1" pageScale="1" pageWidth="827" pageHeight="1169" math="0" shadow="0">
      <root>
        <mxCell id="0" />
        <mxCell id="1" parent="0" />
        <mxCell id="6B7v3QhwBd9ll1PIc4Q1-17" style="edgeStyle=orthogonalEdgeStyle;rounded=0;orthogonalLoop=1;jettySize=auto;html=1;exitX=0;exitY=0.5;exitDx=0;exitDy=0;entryX=0.5;entryY=0;entryDx=0;entryDy=0;" edge="1" parent="1" source="6B7v3QhwBd9ll1PIc4Q1-9" target="6B7v3QhwBd9ll1PIc4Q1-16">
          <mxGeometry relative="1" as="geometry" />
        </mxCell>
        <mxCell id="6B7v3QhwBd9ll1PIc4Q1-26" style="edgeStyle=orthogonalEdgeStyle;rounded=0;orthogonalLoop=1;jettySize=auto;html=1;exitX=1;exitY=0.5;exitDx=0;exitDy=0;" edge="1" parent="1" source="6B7v3QhwBd9ll1PIc4Q1-9" target="6B7v3QhwBd9ll1PIc4Q1-25">
          <mxGeometry relative="1" as="geometry" />
        </mxCell>
        <mxCell id="6B7v3QhwBd9ll1PIc4Q1-9" value="选择操作" style="rhombus;whiteSpace=wrap;html=1;" vertex="1" parent="1">
          <mxGeometry x="357.5" y="150" width="100" height="80" as="geometry" />
        </mxCell>
        <mxCell id="6B7v3QhwBd9ll1PIc4Q1-13" style="edgeStyle=orthogonalEdgeStyle;rounded=0;orthogonalLoop=1;jettySize=auto;html=1;exitX=0.5;exitY=1;exitDx=0;exitDy=0;" edge="1" parent="1" source="6B7v3QhwBd9ll1PIc4Q1-11" target="6B7v3QhwBd9ll1PIc4Q1-9">
          <mxGeometry relative="1" as="geometry" />
        </mxCell>
        <mxCell id="6B7v3QhwBd9ll1PIc4Q1-11" value="开始" style="rounded=1;whiteSpace=wrap;html=1;" vertex="1" parent="1">
          <mxGeometry x="352" y="65" width="110" height="50" as="geometry" />
        </mxCell>
        <mxCell id="6B7v3QhwBd9ll1PIc4Q1-41" style="edgeStyle=orthogonalEdgeStyle;rounded=0;orthogonalLoop=1;jettySize=auto;html=1;exitX=0.5;exitY=1;exitDx=0;exitDy=0;" edge="1" parent="1" source="6B7v3QhwBd9ll1PIc4Q1-15" target="6B7v3QhwBd9ll1PIc4Q1-20">
          <mxGeometry relative="1" as="geometry" />
        </mxCell>
        <mxCell id="6B7v3QhwBd9ll1PIc4Q1-15" value="编辑检测包信息" style="shape=parallelogram;perimeter=parallelogramPerimeter;whiteSpace=wrap;html=1;fixedSize=1;" vertex="1" parent="1">
          <mxGeometry x="190" y="330" width="120" height="50" as="geometry" />
        </mxCell>
        <mxCell id="6B7v3QhwBd9ll1PIc4Q1-19" style="edgeStyle=orthogonalEdgeStyle;rounded=0;orthogonalLoop=1;jettySize=auto;html=1;exitX=0.5;exitY=1;exitDx=0;exitDy=0;" edge="1" parent="1" source="6B7v3QhwBd9ll1PIc4Q1-16" target="6B7v3QhwBd9ll1PIc4Q1-15">
          <mxGeometry relative="1" as="geometry" />
        </mxCell>
        <mxCell id="6B7v3QhwBd9ll1PIc4Q1-16" value="点击新增检测包" style="rounded=0;whiteSpace=wrap;html=1;" vertex="1" parent="1">
          <mxGeometry x="190" y="240" width="120" height="50" as="geometry" />
        </mxCell>
        <mxCell id="6B7v3QhwBd9ll1PIc4Q1-42" style="edgeStyle=orthogonalEdgeStyle;rounded=0;orthogonalLoop=1;jettySize=auto;html=1;exitX=0.5;exitY=1;exitDx=0;exitDy=0;" edge="1" parent="1" source="6B7v3QhwBd9ll1PIc4Q1-20" target="6B7v3QhwBd9ll1PIc4Q1-21">
          <mxGeometry relative="1" as="geometry" />
        </mxCell>
        <mxCell id="6B7v3QhwBd9ll1PIc4Q1-20" value="点击新增检测指令" style="rounded=0;whiteSpace=wrap;html=1;" vertex="1" parent="1">
          <mxGeometry x="190" y="410" width="120" height="50" as="geometry" />
        </mxCell>
        <mxCell id="6B7v3QhwBd9ll1PIc4Q1-43" style="edgeStyle=orthogonalEdgeStyle;rounded=0;orthogonalLoop=1;jettySize=auto;html=1;exitX=0.5;exitY=1;exitDx=0;exitDy=0;entryX=0.5;entryY=0;entryDx=0;entryDy=0;" edge="1" parent="1" source="6B7v3QhwBd9ll1PIc4Q1-21" target="6B7v3QhwBd9ll1PIc4Q1-22">
          <mxGeometry relative="1" as="geometry" />
        </mxCell>
        <mxCell id="6B7v3QhwBd9ll1PIc4Q1-21" value="参数配置构建" style="shape=parallelogram;perimeter=parallelogramPerimeter;whiteSpace=wrap;html=1;fixedSize=1;" vertex="1" parent="1">
          <mxGeometry x="190" y="490" width="120" height="50" as="geometry" />
        </mxCell>
        <mxCell id="6B7v3QhwBd9ll1PIc4Q1-44" style="edgeStyle=orthogonalEdgeStyle;rounded=0;orthogonalLoop=1;jettySize=auto;html=1;exitX=0.5;exitY=1;exitDx=0;exitDy=0;entryX=0.5;entryY=0;entryDx=0;entryDy=0;" edge="1" parent="1" source="6B7v3QhwBd9ll1PIc4Q1-22" target="6B7v3QhwBd9ll1PIc4Q1-23">
          <mxGeometry relative="1" as="geometry" />
        </mxCell>
        <mxCell id="6B7v3QhwBd9ll1PIc4Q1-22" value="生成检测任务" style="rounded=0;whiteSpace=wrap;html=1;" vertex="1" parent="1">
          <mxGeometry x="190" y="570" width="120" height="50" as="geometry" />
        </mxCell>
        <mxCell id="6B7v3QhwBd9ll1PIc4Q1-45" style="edgeStyle=orthogonalEdgeStyle;rounded=0;orthogonalLoop=1;jettySize=auto;html=1;exitX=0.5;exitY=1;exitDx=0;exitDy=0;" edge="1" parent="1" source="6B7v3QhwBd9ll1PIc4Q1-23" target="6B7v3QhwBd9ll1PIc4Q1-24">
          <mxGeometry relative="1" as="geometry" />
        </mxCell>
        <mxCell id="6B7v3QhwBd9ll1PIc4Q1-23" value="对目标网络进行漏洞检测" style="rounded=0;whiteSpace=wrap;html=1;" vertex="1" parent="1">
          <mxGeometry x="190" y="650" width="120" height="50" as="geometry" />
        </mxCell>
        <mxCell id="6B7v3QhwBd9ll1PIc4Q1-46" style="edgeStyle=orthogonalEdgeStyle;rounded=0;orthogonalLoop=1;jettySize=auto;html=1;exitX=0.5;exitY=1;exitDx=0;exitDy=0;entryX=0;entryY=0.75;entryDx=0;entryDy=0;" edge="1" parent="1" source="6B7v3QhwBd9ll1PIc4Q1-24" target="6B7v3QhwBd9ll1PIc4Q1-38">
          <mxGeometry relative="1" as="geometry" />
        </mxCell>
        <mxCell id="6B7v3QhwBd9ll1PIc4Q1-24" value="将结果返回给数据库" style="rounded=0;whiteSpace=wrap;html=1;" vertex="1" parent="1">
          <mxGeometry x="190" y="730" width="120" height="50" as="geometry" />
        </mxCell>
        <mxCell id="6B7v3QhwBd9ll1PIc4Q1-47" style="edgeStyle=orthogonalEdgeStyle;rounded=0;orthogonalLoop=1;jettySize=auto;html=1;exitX=0.5;exitY=1;exitDx=0;exitDy=0;entryX=0.5;entryY=0;entryDx=0;entryDy=0;" edge="1" parent="1" source="6B7v3QhwBd9ll1PIc4Q1-25" target="6B7v3QhwBd9ll1PIc4Q1-27">
          <mxGeometry relative="1" as="geometry" />
        </mxCell>
        <mxCell id="6B7v3QhwBd9ll1PIc4Q1-25" value="点击新增检测包" style="rounded=0;whiteSpace=wrap;html=1;" vertex="1" parent="1">
          <mxGeometry x="491" y="240" width="120" height="50" as="geometry" />
        </mxCell>
        <mxCell id="6B7v3QhwBd9ll1PIc4Q1-48" style="edgeStyle=orthogonalEdgeStyle;rounded=0;orthogonalLoop=1;jettySize=auto;html=1;exitX=0;exitY=0.5;exitDx=0;exitDy=0;entryX=0.5;entryY=0;entryDx=0;entryDy=0;" edge="1" parent="1" source="6B7v3QhwBd9ll1PIc4Q1-27" target="6B7v3QhwBd9ll1PIc4Q1-28">
          <mxGeometry relative="1" as="geometry" />
        </mxCell>
        <mxCell id="6B7v3QhwBd9ll1PIc4Q1-49" style="edgeStyle=orthogonalEdgeStyle;rounded=0;orthogonalLoop=1;jettySize=auto;html=1;exitX=1;exitY=0.5;exitDx=0;exitDy=0;entryX=0.583;entryY=0;entryDx=0;entryDy=0;entryPerimeter=0;" edge="1" parent="1" source="6B7v3QhwBd9ll1PIc4Q1-27" target="6B7v3QhwBd9ll1PIc4Q1-33">
          <mxGeometry relative="1" as="geometry" />
        </mxCell>
        <mxCell id="6B7v3QhwBd9ll1PIc4Q1-50" style="edgeStyle=orthogonalEdgeStyle;rounded=0;orthogonalLoop=1;jettySize=auto;html=1;exitX=0.5;exitY=1;exitDx=0;exitDy=0;entryX=0.5;entryY=0;entryDx=0;entryDy=0;" edge="1" parent="1" target="6B7v3QhwBd9ll1PIc4Q1-30">
          <mxGeometry relative="1" as="geometry">
            <mxPoint x="559" y="395" as="sourcePoint" />
          </mxGeometry>
        </mxCell>
        <mxCell id="6B7v3QhwBd9ll1PIc4Q1-27" value="选择检测包操作" style="rhombus;whiteSpace=wrap;html=1;" vertex="1" parent="1">
          <mxGeometry x="501" y="315" width="100" height="80" as="geometry" />
        </mxCell>
        <mxCell id="6B7v3QhwBd9ll1PIc4Q1-51" style="edgeStyle=orthogonalEdgeStyle;rounded=0;orthogonalLoop=1;jettySize=auto;html=1;exitX=0.5;exitY=1;exitDx=0;exitDy=0;" edge="1" parent="1" source="6B7v3QhwBd9ll1PIc4Q1-28" target="6B7v3QhwBd9ll1PIc4Q1-29">
          <mxGeometry relative="1" as="geometry" />
        </mxCell>
        <mxCell id="6B7v3QhwBd9ll1PIc4Q1-28" value="输入查询的&lt;br&gt;检测包id" style="shape=parallelogram;perimeter=parallelogramPerimeter;whiteSpace=wrap;html=1;fixedSize=1;" vertex="1" parent="1">
          <mxGeometry x="350" y="417" width="120" height="50" as="geometry" />
        </mxCell>
        <mxCell id="6B7v3QhwBd9ll1PIc4Q1-54" style="edgeStyle=orthogonalEdgeStyle;rounded=0;orthogonalLoop=1;jettySize=auto;html=1;exitX=0.5;exitY=1;exitDx=0;exitDy=0;entryX=0;entryY=0.5;entryDx=0;entryDy=0;" edge="1" parent="1" source="6B7v3QhwBd9ll1PIc4Q1-29" target="6B7v3QhwBd9ll1PIc4Q1-38">
          <mxGeometry relative="1" as="geometry" />
        </mxCell>
        <mxCell id="6B7v3QhwBd9ll1PIc4Q1-29" value="返回查询的结果" style="rounded=0;whiteSpace=wrap;html=1;" vertex="1" parent="1">
          <mxGeometry x="350" y="495" width="120" height="50" as="geometry" />
        </mxCell>
        <mxCell id="6B7v3QhwBd9ll1PIc4Q1-52" style="edgeStyle=orthogonalEdgeStyle;rounded=0;orthogonalLoop=1;jettySize=auto;html=1;exitX=0.5;exitY=1;exitDx=0;exitDy=0;entryX=0.5;entryY=0;entryDx=0;entryDy=0;" edge="1" parent="1" source="6B7v3QhwBd9ll1PIc4Q1-30" target="6B7v3QhwBd9ll1PIc4Q1-31">
          <mxGeometry relative="1" as="geometry" />
        </mxCell>
        <mxCell id="6B7v3QhwBd9ll1PIc4Q1-30" value="点击修改检测包" style="rounded=0;whiteSpace=wrap;html=1;" vertex="1" parent="1">
          <mxGeometry x="499" y="417" width="120" height="50" as="geometry" />
        </mxCell>
        <mxCell id="6B7v3QhwBd9ll1PIc4Q1-55" style="edgeStyle=orthogonalEdgeStyle;rounded=0;orthogonalLoop=1;jettySize=auto;html=1;exitX=0.5;exitY=1;exitDx=0;exitDy=0;" edge="1" parent="1" source="6B7v3QhwBd9ll1PIc4Q1-31" target="6B7v3QhwBd9ll1PIc4Q1-32">
          <mxGeometry relative="1" as="geometry" />
        </mxCell>
        <mxCell id="6B7v3QhwBd9ll1PIc4Q1-31" value="输入修改&lt;br&gt;检测包信息" style="shape=parallelogram;perimeter=parallelogramPerimeter;whiteSpace=wrap;html=1;fixedSize=1;" vertex="1" parent="1">
          <mxGeometry x="499" y="495" width="120" height="50" as="geometry" />
        </mxCell>
        <mxCell id="6B7v3QhwBd9ll1PIc4Q1-58" style="edgeStyle=orthogonalEdgeStyle;rounded=0;orthogonalLoop=1;jettySize=auto;html=1;exitX=0.5;exitY=1;exitDx=0;exitDy=0;" edge="1" parent="1" source="6B7v3QhwBd9ll1PIc4Q1-32" target="6B7v3QhwBd9ll1PIc4Q1-35">
          <mxGeometry relative="1" as="geometry" />
        </mxCell>
        <mxCell id="6B7v3QhwBd9ll1PIc4Q1-62" style="edgeStyle=orthogonalEdgeStyle;rounded=0;orthogonalLoop=1;jettySize=auto;html=1;exitX=1;exitY=0.5;exitDx=0;exitDy=0;entryX=0.5;entryY=0;entryDx=0;entryDy=0;" edge="1" parent="1" source="6B7v3QhwBd9ll1PIc4Q1-32" target="6B7v3QhwBd9ll1PIc4Q1-36">
          <mxGeometry relative="1" as="geometry" />
        </mxCell>
        <mxCell id="6B7v3QhwBd9ll1PIc4Q1-32" value="是否需要修改&lt;br&gt;检测指令" style="rhombus;whiteSpace=wrap;html=1;" vertex="1" parent="1">
          <mxGeometry x="509" y="570" width="100" height="80" as="geometry" />
        </mxCell>
        <mxCell id="6B7v3QhwBd9ll1PIc4Q1-53" style="edgeStyle=orthogonalEdgeStyle;rounded=0;orthogonalLoop=1;jettySize=auto;html=1;exitX=0.5;exitY=1;exitDx=0;exitDy=0;entryX=0.5;entryY=0;entryDx=0;entryDy=0;" edge="1" parent="1" source="6B7v3QhwBd9ll1PIc4Q1-33" target="6B7v3QhwBd9ll1PIc4Q1-34">
          <mxGeometry relative="1" as="geometry" />
        </mxCell>
        <mxCell id="6B7v3QhwBd9ll1PIc4Q1-33" value="点击删除检测包" style="rounded=0;whiteSpace=wrap;html=1;" vertex="1" parent="1">
          <mxGeometry x="652" y="417" width="120" height="50" as="geometry" />
        </mxCell>
        <mxCell id="6B7v3QhwBd9ll1PIc4Q1-57" style="edgeStyle=orthogonalEdgeStyle;rounded=0;orthogonalLoop=1;jettySize=auto;html=1;exitX=0.5;exitY=1;exitDx=0;exitDy=0;entryX=1;entryY=0.5;entryDx=0;entryDy=0;" edge="1" parent="1" source="6B7v3QhwBd9ll1PIc4Q1-34" target="6B7v3QhwBd9ll1PIc4Q1-38">
          <mxGeometry relative="1" as="geometry" />
        </mxCell>
        <mxCell id="6B7v3QhwBd9ll1PIc4Q1-34" value="成功删除" style="rounded=0;whiteSpace=wrap;html=1;" vertex="1" parent="1">
          <mxGeometry x="652" y="495" width="120" height="50" as="geometry" />
        </mxCell>
        <mxCell id="6B7v3QhwBd9ll1PIc4Q1-60" style="edgeStyle=orthogonalEdgeStyle;rounded=0;orthogonalLoop=1;jettySize=auto;html=1;exitX=0.5;exitY=1;exitDx=0;exitDy=0;entryX=0.5;entryY=0;entryDx=0;entryDy=0;" edge="1" parent="1" source="6B7v3QhwBd9ll1PIc4Q1-35" target="6B7v3QhwBd9ll1PIc4Q1-37">
          <mxGeometry relative="1" as="geometry" />
        </mxCell>
        <mxCell id="6B7v3QhwBd9ll1PIc4Q1-35" value="结束修改" style="rounded=0;whiteSpace=wrap;html=1;" vertex="1" parent="1">
          <mxGeometry x="499" y="725" width="120" height="50" as="geometry" />
        </mxCell>
        <mxCell id="6B7v3QhwBd9ll1PIc4Q1-63" style="edgeStyle=orthogonalEdgeStyle;rounded=0;orthogonalLoop=1;jettySize=auto;html=1;exitX=0.5;exitY=1;exitDx=0;exitDy=0;entryX=1;entryY=0.5;entryDx=0;entryDy=0;" edge="1" parent="1" source="6B7v3QhwBd9ll1PIc4Q1-36" target="6B7v3QhwBd9ll1PIc4Q1-35">
          <mxGeometry relative="1" as="geometry" />
        </mxCell>
        <mxCell id="6B7v3QhwBd9ll1PIc4Q1-36" value="输入修改&lt;br&gt;检测指令信息" style="shape=parallelogram;perimeter=parallelogramPerimeter;whiteSpace=wrap;html=1;fixedSize=1;" vertex="1" parent="1">
          <mxGeometry x="590" y="650" width="120" height="50" as="geometry" />
        </mxCell>
        <mxCell id="6B7v3QhwBd9ll1PIc4Q1-61" style="edgeStyle=orthogonalEdgeStyle;rounded=0;orthogonalLoop=1;jettySize=auto;html=1;exitX=0.5;exitY=1;exitDx=0;exitDy=0;entryX=0.5;entryY=0;entryDx=0;entryDy=0;" edge="1" parent="1" source="6B7v3QhwBd9ll1PIc4Q1-37" target="6B7v3QhwBd9ll1PIc4Q1-38">
          <mxGeometry relative="1" as="geometry" />
        </mxCell>
        <mxCell id="6B7v3QhwBd9ll1PIc4Q1-37" value="生成新的检测任务" style="rounded=0;whiteSpace=wrap;html=1;" vertex="1" parent="1">
          <mxGeometry x="499" y="805" width="120" height="50" as="geometry" />
        </mxCell>
        <mxCell id="6B7v3QhwBd9ll1PIc4Q1-38" value="结束" style="rounded=1;whiteSpace=wrap;html=1;" vertex="1" parent="1">
          <mxGeometry x="504" y="889" width="110" height="50" as="geometry" />
        </mxCell>
        <mxCell id="6B7v3QhwBd9ll1PIc4Q1-64" value="是" style="text;html=1;strokeColor=none;fillColor=none;align=center;verticalAlign=middle;whiteSpace=wrap;rounded=0;" vertex="1" parent="1">
          <mxGeometry x="609" y="585" width="60" height="30" as="geometry" />
        </mxCell>
        <mxCell id="6B7v3QhwBd9ll1PIc4Q1-65" value="否" style="text;html=1;strokeColor=none;fillColor=none;align=center;verticalAlign=middle;whiteSpace=wrap;rounded=0;" vertex="1" parent="1">
          <mxGeometry x="520" y="660" width="60" height="30" as="geometry" />
        </mxCell>
      </root>
    </mxGraphModel>
  </diagram>
</mxfile>
